<?xml version="1.0" encoding="UTF-8" standalone="no"?>
<!DOCTYPE svg PUBLIC "-//W3C//DTD SVG 1.1//EN" "http://www.w3.org/Graphics/SVG/1.1/DTD/svg11.dtd">
<svg width="100%" height="100%" viewBox="0 0 371 406" version="1.1" xmlns="http://www.w3.org/2000/svg" xmlns:xlink="http://www.w3.org/1999/xlink" xml:space="preserve" xmlns:serif="http://www.serif.com/" style="fill-rule:evenodd;clip-rule:evenodd;stroke-linejoin:round;stroke-miterlimit:2;">
    <g transform="matrix(1,0,0,1,-139.866,-85.1064)">
        <g transform="matrix(1.6087,0,0,1.00614,-216.306,-4.01211)">
            <path d="M350.366,258.855C350.366,258.855 353.011,258.97 356.127,259.105C361.637,259.345 366.026,266.556 366.026,275.37L366.026,312.058C366.026,318.757 363.106,324.552 359.011,325.976C354.844,327.425 350.366,328.983 350.366,328.983L350.366,258.855Z" style="fill:url(#_Linear1);"/>
        </g>
        <g>
            <g transform="matrix(1,0,0,1,-43.4042,28.0851)">
                <path d="M193.103,121.748C186.724,130.383 183.355,140.871 183.511,151.605C184,185.198 185.147,264.1 186.157,333.514C187.171,403.176 243.529,459.332 313.194,460.096C381.735,460.847 458.41,461.687 487.028,462.001C494.163,462.079 500.763,458.224 504.2,451.971C506.073,448.563 508.294,444.522 510.666,440.207C515.221,431.921 514.815,421.795 509.613,413.9C504.41,406.004 495.265,401.637 485.855,402.553C485.852,402.553 485.851,402.553 485.851,402.553L378.404,402.553C354.55,402.553 335.213,383.216 335.213,359.362L335.213,327.872C335.213,320.142 338.284,312.727 343.75,307.261C349.217,301.794 356.631,298.723 364.362,298.723C374.074,298.723 384.62,298.723 393.298,298.723C403.521,298.723 411.809,290.436 411.809,280.213L411.809,237.66C411.809,235.12 410.8,232.685 409.004,230.889C407.209,229.094 404.773,228.085 402.234,228.085C393.511,228.085 380.082,228.085 367.34,228.085C348.187,228.085 332.66,212.558 332.66,193.404L332.66,141.915C332.66,134.523 335.596,127.433 340.823,122.206C346.05,116.979 353.14,114.043 360.532,114.043C390.029,114.043 436.079,114.043 463.878,114.043C479.037,114.043 493.575,120.065 504.294,130.784C504.295,130.784 504.296,130.785 504.296,130.785C507.329,133.819 511.631,135.216 515.868,134.544C520.105,133.873 523.764,131.213 525.71,127.39C525.762,127.287 525.815,127.183 525.868,127.079C535.093,108.959 532.245,87.033 518.696,71.871C515.054,67.796 511.686,64.027 509.254,61.305C506.818,58.58 503.336,57.021 499.68,57.021C466.359,57.021 297.84,57.021 252.283,57.021C245.134,57.021 238.409,60.414 234.162,66.165C224.019,79.895 204.801,105.912 193.103,121.748Z" style="fill:url(#_Linear2);"/>
            </g>
            <g transform="matrix(0.999992,0.00393535,-0.00393535,0.999992,1.34081,-0.769348)">
                <path d="M143.07,163.445C144.052,159.509 145.768,155.793 148.13,152.495C157.123,139.935 180.714,106.988 191.151,92.41C194.348,87.945 199.503,85.297 204.994,85.297L251.564,85.297L141.078,240.695L140.634,173.22C140.634,173.22 141.96,167.898 143.07,163.445Z" style="fill:url(#_Linear3);"/>
            </g>
        </g>
        <g id="Rocket" transform="matrix(4.95837,3.5136e-31,-6.11194e-32,4.07206,405.958,0.649313)">
            <path d="M14.473,106.854C13.057,107.073 11.856,105.859 12.072,104.43C12.207,103.539 12.928,102.81 13.811,102.674C15.226,102.455 16.428,103.669 16.211,105.099C16.076,105.989 15.355,106.718 14.473,106.854ZM20.867,97.169C21.054,98.219 21.761,104.012 16.26,110.757C15.685,111.463 15.045,112.069 14.381,112.592C14.321,112.639 14.293,112.712 14.308,112.787C14.504,113.776 14.746,115.764 13.843,116.909C11.982,119.271 9.269,119.864 8.403,119.997C8.261,120.019 8.14,119.899 8.154,119.755C8.154,119.755 8.524,116.137 8.6,115.361C8.607,115.288 8.545,115.226 8.472,115.237C8.046,115.295 7.397,115.374 7.218,115.331C6.945,115.267 4.908,113.558 4.8,113.296C4.728,113.123 4.708,112.475 4.703,112.057C4.702,111.99 4.638,111.942 4.574,111.959L0.239,113.114C0.119,113.146 0.002,113.057 0,112.932C-0.007,112.093 0.131,109.243 2.188,106.989C3.196,105.884 5.255,105.848 6.224,105.898C6.3,105.902 6.367,105.863 6.405,105.796C6.86,104.979 7.424,104.178 8.121,103.449C13.893,97.421 19.615,97.021 20.663,97C20.765,96.998 20.85,97.068 20.867,97.169ZM6.717,115.949C7.05,116.028 6.911,116.976 6.288,117.696C5.914,118.128 5.369,118.47 4.784,118.621C3.483,118.957 2.282,118.756 2.282,118.756C2.282,118.756 1.902,117.581 2.031,116.232C2.089,115.624 2.34,115.028 2.705,114.588C3.313,113.855 4.22,113.572 4.348,113.891C4.558,114.417 3.931,114.327 3.678,115.554C3.483,116.503 3.805,116.932 3.799,116.948C3.811,116.942 4.278,117.199 5.177,116.858C6.338,116.418 6.171,115.82 6.717,115.949Z" style="fill:rgb(56,144,247);"/>
        </g>
        <g>
            <g id="Favourite" transform="matrix(0.264534,4.93241e-32,-3.27333e-33,0.269069,265.615,165.629)">
                <path d="M201.575,271.62C202.364,274.046 204.657,275.693 207.248,275.693C213.321,275.693 223.605,275.693 223.605,275.693C223.605,275.693 216.409,280.921 211.45,284.524C208.702,286.521 207.553,290.017 208.592,293.217C210.487,299.048 213.252,307.557 213.252,307.557C213.252,307.557 205.604,302 200.643,298.396C198.181,296.607 194.819,296.607 192.357,298.396C187.396,302 179.748,307.557 179.748,307.557C179.748,307.557 182.628,298.692 184.524,292.858C185.494,289.872 184.422,286.611 181.858,284.748C176.895,281.142 169.395,275.693 169.395,275.693C169.395,275.693 177.933,275.693 184.044,275.693C187.652,275.693 190.847,273.4 191.944,270.02C193.835,264.203 196.5,256 196.5,256C198.192,261.207 199.883,266.413 201.575,271.62Z" style="fill:url(#_Linear4);fill-rule:nonzero;"/>
            </g>
            <g id="Favourite1" serif:id="Favourite" transform="matrix(0.239414,4.20617e-32,-2.9625e-33,0.229452,284.168,160.792)">
                <path d="M201.384,271.031C202.289,273.818 204.796,275.693 207.616,275.693C213.727,275.693 223.605,275.693 223.605,275.693C223.605,275.693 217.182,280.359 212.291,283.913C209.07,286.253 207.721,290.533 208.981,294.412C210.842,300.142 213.252,307.557 213.252,307.557C213.252,307.557 205.865,302.19 200.901,298.584C198.256,296.662 194.744,296.662 192.099,298.584C187.135,302.19 179.748,307.557 179.748,307.557C179.748,307.557 182.283,299.755 184.162,293.973C185.338,290.355 184.078,286.361 181.073,284.178C176.143,280.596 169.395,275.693 169.395,275.693C169.395,275.693 177.468,275.693 183.532,275.693C187.459,275.693 190.95,273.082 192.211,269.201C194.075,263.464 196.5,256 196.5,256C198.128,261.01 199.756,266.021 201.384,271.031Z" style="fill:url(#_Linear5);fill-rule:nonzero;"/>
            </g>
            <g id="Favourite2" serif:id="Favourite" transform="matrix(0.264534,4.93241e-32,-3.27333e-33,0.269069,250.636,128.182)">
                <path d="M201.575,271.62C202.364,274.046 204.657,275.693 207.248,275.693C213.321,275.693 223.605,275.693 223.605,275.693C223.605,275.693 216.409,280.921 211.45,284.524C208.702,286.521 207.553,290.017 208.592,293.217C210.487,299.048 213.252,307.557 213.252,307.557C213.252,307.557 205.604,302 200.643,298.396C198.181,296.607 194.819,296.607 192.357,298.396C187.396,302 179.748,307.557 179.748,307.557C179.748,307.557 182.628,298.692 184.524,292.858C185.494,289.872 184.422,286.611 181.858,284.748C176.895,281.142 169.395,275.693 169.395,275.693C169.395,275.693 177.933,275.693 184.044,275.693C187.652,275.693 190.847,273.4 191.944,270.02C193.835,264.203 196.5,256 196.5,256C198.192,261.207 199.883,266.413 201.575,271.62Z" style="fill:url(#_Linear6);fill-rule:nonzero;"/>
            </g>
            <g id="Favourite3" serif:id="Favourite" transform="matrix(0.239414,4.20617e-32,-2.9625e-33,0.229452,269.189,123.345)">
                <path d="M201.384,271.031C202.289,273.818 204.796,275.693 207.616,275.693C213.727,275.693 223.605,275.693 223.605,275.693C223.605,275.693 217.182,280.359 212.291,283.913C209.07,286.253 207.721,290.533 208.981,294.412C210.842,300.142 213.252,307.557 213.252,307.557C213.252,307.557 205.865,302.19 200.901,298.584C198.256,296.662 194.744,296.662 192.099,298.584C187.135,302.19 179.748,307.557 179.748,307.557C179.748,307.557 182.283,299.755 184.162,293.973C185.338,290.355 184.078,286.361 181.073,284.178C176.143,280.596 169.395,275.693 169.395,275.693C169.395,275.693 177.468,275.693 183.532,275.693C187.459,275.693 190.95,273.082 192.211,269.201C194.075,263.464 196.5,256 196.5,256C198.128,261.01 199.756,266.021 201.384,271.031Z" style="fill:url(#_Linear7);fill-rule:nonzero;"/>
            </g>
            <g id="Favourite4" serif:id="Favourite" transform="matrix(0.1515,3.47993e-32,-1.87465e-33,0.189834,273.869,175.019)">
                <path d="M200.879,269.477C202.068,273.137 206.207,275.693 210.945,275.693C216.763,275.693 223.605,275.693 223.605,275.693C223.605,275.693 217.835,279.885 213.068,283.349C209.246,286.126 207.665,290.364 208.963,294.357C210.827,300.094 213.252,307.557 213.252,307.557C213.252,307.557 208.942,304.426 204.694,301.34C200.05,297.965 192.95,297.965 188.306,301.34C184.058,304.426 179.748,307.557 179.748,307.557C179.748,307.557 182.298,299.709 184.178,293.922C185.389,290.196 183.914,286.242 180.348,283.651C175.508,280.134 169.395,275.693 169.395,275.693C169.395,275.693 174.019,275.693 178.896,275.693C185.494,275.693 191.258,272.134 192.914,267.037C194.631,261.751 196.5,256 196.5,256C197.96,260.492 199.419,264.985 200.879,269.477Z" style="fill:url(#_Linear8);fill-rule:nonzero;"/>
            </g>
            <g id="Favourite5" serif:id="Favourite" transform="matrix(0.1515,3.47993e-32,-1.87465e-33,0.189834,284.762,161.402)">
                <path d="M200.879,269.477C202.068,273.137 206.207,275.693 210.945,275.693C216.763,275.693 223.605,275.693 223.605,275.693C223.605,275.693 217.835,279.885 213.068,283.349C209.246,286.126 207.665,290.364 208.963,294.357C210.827,300.094 213.252,307.557 213.252,307.557C213.252,307.557 208.942,304.426 204.694,301.34C200.05,297.965 192.95,297.965 188.306,301.34C184.058,304.426 179.748,307.557 179.748,307.557C179.748,307.557 182.298,299.709 184.178,293.922C185.389,290.196 183.914,286.242 180.348,283.651C175.508,280.134 169.395,275.693 169.395,275.693C169.395,275.693 174.019,275.693 178.896,275.693C185.494,275.693 191.258,272.134 192.914,267.037C194.631,261.751 196.5,256 196.5,256C197.96,260.492 199.419,264.985 200.879,269.477Z" style="fill:url(#_Linear9);fill-rule:nonzero;"/>
            </g>
            <g id="Favourite6" serif:id="Favourite" transform="matrix(0.1515,3.47993e-32,-1.87465e-33,0.189834,271.826,123.956)">
                <path d="M200.879,269.477C202.068,273.137 206.207,275.693 210.945,275.693C216.763,275.693 223.605,275.693 223.605,275.693C223.605,275.693 217.835,279.885 213.068,283.349C209.246,286.126 207.665,290.364 208.963,294.357C210.827,300.094 213.252,307.557 213.252,307.557C213.252,307.557 208.942,304.426 204.694,301.34C200.05,297.965 192.95,297.965 188.306,301.34C184.058,304.426 179.748,307.557 179.748,307.557C179.748,307.557 182.298,299.709 184.178,293.922C185.389,290.196 183.914,286.242 180.348,283.651C175.508,280.134 169.395,275.693 169.395,275.693C169.395,275.693 174.019,275.693 178.896,275.693C185.494,275.693 191.258,272.134 192.914,267.037C194.631,261.751 196.5,256 196.5,256C197.96,260.492 199.419,264.985 200.879,269.477Z" style="fill:url(#_Linear10);fill-rule:nonzero;"/>
            </g>
            <g id="Favourite7" serif:id="Favourite" transform="matrix(0.1515,3.47993e-32,-1.87465e-33,0.189834,282.72,110.339)">
                <path d="M200.879,269.477C202.068,273.137 206.207,275.693 210.945,275.693C216.763,275.693 223.605,275.693 223.605,275.693C223.605,275.693 217.835,279.885 213.068,283.349C209.246,286.126 207.665,290.364 208.963,294.357C210.827,300.094 213.252,307.557 213.252,307.557C213.252,307.557 208.942,304.426 204.694,301.34C200.05,297.965 192.95,297.965 188.306,301.34C184.058,304.426 179.748,307.557 179.748,307.557C179.748,307.557 182.298,299.709 184.178,293.922C185.389,290.196 183.914,286.242 180.348,283.651C175.508,280.134 169.395,275.693 169.395,275.693C169.395,275.693 174.019,275.693 178.896,275.693C185.494,275.693 191.258,272.134 192.914,267.037C194.631,261.751 196.5,256 196.5,256C197.96,260.492 199.419,264.985 200.879,269.477Z" style="fill:url(#_Linear11);fill-rule:nonzero;"/>
            </g>
        </g>
        <g>
            <g id="Favourite8" serif:id="Favourite" transform="matrix(0.264534,4.93241e-32,-3.27333e-33,0.269069,267.657,338.565)">
                <path d="M201.575,271.62C202.364,274.046 204.657,275.693 207.248,275.693C213.321,275.693 223.605,275.693 223.605,275.693C223.605,275.693 216.409,280.921 211.45,284.524C208.702,286.521 207.553,290.017 208.592,293.217C210.487,299.048 213.252,307.557 213.252,307.557C213.252,307.557 205.604,302 200.643,298.396C198.181,296.607 194.819,296.607 192.357,298.396C187.396,302 179.748,307.557 179.748,307.557C179.748,307.557 182.628,298.692 184.524,292.858C185.494,289.872 184.422,286.611 181.858,284.748C176.895,281.142 169.395,275.693 169.395,275.693C169.395,275.693 177.933,275.693 184.044,275.693C187.652,275.693 190.847,273.4 191.944,270.02C193.835,264.203 196.5,256 196.5,256C198.192,261.207 199.883,266.413 201.575,271.62Z" style="fill:url(#_Linear12);fill-rule:nonzero;"/>
            </g>
            <g id="Favourite9" serif:id="Favourite" transform="matrix(0.239414,4.20617e-32,-2.9625e-33,0.229452,286.21,333.728)">
                <path d="M201.384,271.031C202.289,273.818 204.796,275.693 207.616,275.693C213.727,275.693 223.605,275.693 223.605,275.693C223.605,275.693 217.182,280.359 212.291,283.913C209.07,286.253 207.721,290.533 208.981,294.412C210.842,300.142 213.252,307.557 213.252,307.557C213.252,307.557 205.865,302.19 200.901,298.584C198.256,296.662 194.744,296.662 192.099,298.584C187.135,302.19 179.748,307.557 179.748,307.557C179.748,307.557 182.283,299.755 184.162,293.973C185.338,290.355 184.078,286.361 181.073,284.178C176.143,280.596 169.395,275.693 169.395,275.693C169.395,275.693 177.468,275.693 183.532,275.693C187.459,275.693 190.95,273.082 192.211,269.201C194.075,263.464 196.5,256 196.5,256C198.128,261.01 199.756,266.021 201.384,271.031Z" style="fill:url(#_Linear13);fill-rule:nonzero;"/>
            </g>
            <g id="Favourite10" serif:id="Favourite" transform="matrix(0.264534,4.93241e-32,-3.27333e-33,0.269069,252.679,301.118)">
                <path d="M201.575,271.62C202.364,274.046 204.657,275.693 207.248,275.693C213.321,275.693 223.605,275.693 223.605,275.693C223.605,275.693 216.409,280.921 211.45,284.524C208.702,286.521 207.553,290.017 208.592,293.217C210.487,299.048 213.252,307.557 213.252,307.557C213.252,307.557 205.604,302 200.643,298.396C198.181,296.607 194.819,296.607 192.357,298.396C187.396,302 179.748,307.557 179.748,307.557C179.748,307.557 182.628,298.692 184.524,292.858C185.494,289.872 184.422,286.611 181.858,284.748C176.895,281.142 169.395,275.693 169.395,275.693C169.395,275.693 177.933,275.693 184.044,275.693C187.652,275.693 190.847,273.4 191.944,270.02C193.835,264.203 196.5,256 196.5,256C198.192,261.207 199.883,266.413 201.575,271.62Z" style="fill:url(#_Linear14);fill-rule:nonzero;"/>
            </g>
            <g id="Favourite11" serif:id="Favourite" transform="matrix(0.239414,4.20617e-32,-2.9625e-33,0.229452,271.232,296.282)">
                <path d="M201.384,271.031C202.289,273.818 204.796,275.693 207.616,275.693C213.727,275.693 223.605,275.693 223.605,275.693C223.605,275.693 217.182,280.359 212.291,283.913C209.07,286.253 207.721,290.533 208.981,294.412C210.842,300.142 213.252,307.557 213.252,307.557C213.252,307.557 205.865,302.19 200.901,298.584C198.256,296.662 194.744,296.662 192.099,298.584C187.135,302.19 179.748,307.557 179.748,307.557C179.748,307.557 182.283,299.755 184.162,293.973C185.338,290.355 184.078,286.361 181.073,284.178C176.143,280.596 169.395,275.693 169.395,275.693C169.395,275.693 177.468,275.693 183.532,275.693C187.459,275.693 190.95,273.082 192.211,269.201C194.075,263.464 196.5,256 196.5,256C198.128,261.01 199.756,266.021 201.384,271.031Z" style="fill:url(#_Linear15);fill-rule:nonzero;"/>
            </g>
            <g id="Favourite12" serif:id="Favourite" transform="matrix(0.1515,3.47993e-32,-1.87465e-33,0.189834,275.911,347.956)">
                <path d="M200.879,269.477C202.068,273.137 206.207,275.693 210.945,275.693C216.763,275.693 223.605,275.693 223.605,275.693C223.605,275.693 217.835,279.885 213.068,283.349C209.246,286.126 207.665,290.364 208.963,294.357C210.827,300.094 213.252,307.557 213.252,307.557C213.252,307.557 208.942,304.426 204.694,301.34C200.05,297.965 192.95,297.965 188.306,301.34C184.058,304.426 179.748,307.557 179.748,307.557C179.748,307.557 182.298,299.709 184.178,293.922C185.389,290.196 183.914,286.242 180.348,283.651C175.508,280.134 169.395,275.693 169.395,275.693C169.395,275.693 174.019,275.693 178.896,275.693C185.494,275.693 191.258,272.134 192.914,267.037C194.631,261.751 196.5,256 196.5,256C197.96,260.492 199.419,264.985 200.879,269.477Z" style="fill:url(#_Linear16);fill-rule:nonzero;"/>
            </g>
            <g id="Favourite13" serif:id="Favourite" transform="matrix(0.1515,3.47993e-32,-1.87465e-33,0.189834,286.805,334.339)">
                <path d="M200.879,269.477C202.068,273.137 206.207,275.693 210.945,275.693C216.763,275.693 223.605,275.693 223.605,275.693C223.605,275.693 217.835,279.885 213.068,283.349C209.246,286.126 207.665,290.364 208.963,294.357C210.827,300.094 213.252,307.557 213.252,307.557C213.252,307.557 208.942,304.426 204.694,301.34C200.05,297.965 192.95,297.965 188.306,301.34C184.058,304.426 179.748,307.557 179.748,307.557C179.748,307.557 182.298,299.709 184.178,293.922C185.389,290.196 183.914,286.242 180.348,283.651C175.508,280.134 169.395,275.693 169.395,275.693C169.395,275.693 174.019,275.693 178.896,275.693C185.494,275.693 191.258,272.134 192.914,267.037C194.631,261.751 196.5,256 196.5,256C197.96,260.492 199.419,264.985 200.879,269.477Z" style="fill:url(#_Linear17);fill-rule:nonzero;"/>
            </g>
            <g id="Favourite14" serif:id="Favourite" transform="matrix(0.1515,3.47993e-32,-1.87465e-33,0.189834,273.869,296.892)">
                <path d="M200.879,269.477C202.068,273.137 206.207,275.693 210.945,275.693C216.763,275.693 223.605,275.693 223.605,275.693C223.605,275.693 217.835,279.885 213.068,283.349C209.246,286.126 207.665,290.364 208.963,294.357C210.827,300.094 213.252,307.557 213.252,307.557C213.252,307.557 208.942,304.426 204.694,301.34C200.05,297.965 192.95,297.965 188.306,301.34C184.058,304.426 179.748,307.557 179.748,307.557C179.748,307.557 182.298,299.709 184.178,293.922C185.389,290.196 183.914,286.242 180.348,283.651C175.508,280.134 169.395,275.693 169.395,275.693C169.395,275.693 174.019,275.693 178.896,275.693C185.494,275.693 191.258,272.134 192.914,267.037C194.631,261.751 196.5,256 196.5,256C197.96,260.492 199.419,264.985 200.879,269.477Z" style="fill:url(#_Linear18);fill-rule:nonzero;"/>
            </g>
            <g id="Favourite15" serif:id="Favourite" transform="matrix(0.1515,3.47993e-32,-1.87465e-33,0.189834,284.762,283.275)">
                <path d="M200.879,269.477C202.068,273.137 206.207,275.693 210.945,275.693C216.763,275.693 223.605,275.693 223.605,275.693C223.605,275.693 217.835,279.885 213.068,283.349C209.246,286.126 207.665,290.364 208.963,294.357C210.827,300.094 213.252,307.557 213.252,307.557C213.252,307.557 208.942,304.426 204.694,301.34C200.05,297.965 192.95,297.965 188.306,301.34C184.058,304.426 179.748,307.557 179.748,307.557C179.748,307.557 182.298,299.709 184.178,293.922C185.389,290.196 183.914,286.242 180.348,283.651C175.508,280.134 169.395,275.693 169.395,275.693C169.395,275.693 174.019,275.693 178.896,275.693C185.494,275.693 191.258,272.134 192.914,267.037C194.631,261.751 196.5,256 196.5,256C197.96,260.492 199.419,264.985 200.879,269.477Z" style="fill:url(#_Linear19);fill-rule:nonzero;"/>
            </g>
        </g>
    </g>
    <defs>
        <linearGradient id="_Linear1" x1="0" y1="0" x2="1" y2="0" gradientUnits="userSpaceOnUse" gradientTransform="matrix(15.6595,0,0,70.1276,350.366,293.919)"><stop offset="0" style="stop-color:rgb(37,85,186);stop-opacity:1"/><stop offset="1" style="stop-color:rgb(53,42,173);stop-opacity:1"/></linearGradient>
        <linearGradient id="_Linear2" x1="0" y1="0" x2="1" y2="0" gradientUnits="userSpaceOnUse" gradientTransform="matrix(353.191,0,0,405.106,187.979,259.574)"><stop offset="0" style="stop-color:rgb(0,180,255);stop-opacity:1"/><stop offset="0.59" style="stop-color:rgb(151,221,231);stop-opacity:1"/><stop offset="1" style="stop-color:rgb(89,200,216);stop-opacity:1"/></linearGradient>
        <linearGradient id="_Linear3" x1="0" y1="0" x2="1" y2="0" gradientUnits="userSpaceOnUse" gradientTransform="matrix(111.489,0,0,155.745,140.075,163.169)"><stop offset="0" style="stop-color:rgb(37,44,186);stop-opacity:0.25"/><stop offset="1" style="stop-color:rgb(0,45,255);stop-opacity:0.25"/></linearGradient>
        <linearGradient id="_Linear4" x1="0" y1="0" x2="1" y2="0" gradientUnits="userSpaceOnUse" gradientTransform="matrix(54.2102,0,0,51.557,169.395,281.778)"><stop offset="0" style="stop-color:rgb(3,0,255);stop-opacity:1"/><stop offset="0.53" style="stop-color:rgb(84,82,255);stop-opacity:1"/><stop offset="1" style="stop-color:rgb(98,0,255);stop-opacity:1"/></linearGradient>
        <linearGradient id="_Linear5" x1="0" y1="0" x2="1" y2="0" gradientUnits="userSpaceOnUse" gradientTransform="matrix(54.2102,0,0,51.557,169.395,281.778)"><stop offset="0" style="stop-color:rgb(3,0,255);stop-opacity:1"/><stop offset="0.53" style="stop-color:rgb(84,82,255);stop-opacity:1"/><stop offset="1" style="stop-color:rgb(98,0,255);stop-opacity:1"/></linearGradient>
        <linearGradient id="_Linear6" x1="0" y1="0" x2="1" y2="0" gradientUnits="userSpaceOnUse" gradientTransform="matrix(54.2102,0,0,51.557,169.395,281.778)"><stop offset="0" style="stop-color:rgb(3,0,255);stop-opacity:1"/><stop offset="0.53" style="stop-color:rgb(84,82,255);stop-opacity:1"/><stop offset="1" style="stop-color:rgb(98,0,255);stop-opacity:1"/></linearGradient>
        <linearGradient id="_Linear7" x1="0" y1="0" x2="1" y2="0" gradientUnits="userSpaceOnUse" gradientTransform="matrix(54.2102,0,0,51.557,169.395,281.778)"><stop offset="0" style="stop-color:rgb(3,0,255);stop-opacity:1"/><stop offset="0.53" style="stop-color:rgb(84,82,255);stop-opacity:1"/><stop offset="1" style="stop-color:rgb(98,0,255);stop-opacity:1"/></linearGradient>
        <linearGradient id="_Linear8" x1="0" y1="0" x2="1" y2="0" gradientUnits="userSpaceOnUse" gradientTransform="matrix(54.2102,0,0,51.557,169.395,281.778)"><stop offset="0" style="stop-color:rgb(3,0,255);stop-opacity:1"/><stop offset="0.53" style="stop-color:rgb(84,82,255);stop-opacity:1"/><stop offset="1" style="stop-color:rgb(98,0,255);stop-opacity:1"/></linearGradient>
        <linearGradient id="_Linear9" x1="0" y1="0" x2="1" y2="0" gradientUnits="userSpaceOnUse" gradientTransform="matrix(54.2102,0,0,51.557,169.395,281.778)"><stop offset="0" style="stop-color:rgb(3,0,255);stop-opacity:1"/><stop offset="0.53" style="stop-color:rgb(84,82,255);stop-opacity:1"/><stop offset="1" style="stop-color:rgb(98,0,255);stop-opacity:1"/></linearGradient>
        <linearGradient id="_Linear10" x1="0" y1="0" x2="1" y2="0" gradientUnits="userSpaceOnUse" gradientTransform="matrix(54.2102,0,0,51.557,169.395,281.778)"><stop offset="0" style="stop-color:rgb(3,0,255);stop-opacity:1"/><stop offset="0.53" style="stop-color:rgb(84,82,255);stop-opacity:1"/><stop offset="1" style="stop-color:rgb(98,0,255);stop-opacity:1"/></linearGradient>
        <linearGradient id="_Linear11" x1="0" y1="0" x2="1" y2="0" gradientUnits="userSpaceOnUse" gradientTransform="matrix(54.2102,0,0,51.557,169.395,281.778)"><stop offset="0" style="stop-color:rgb(3,0,255);stop-opacity:1"/><stop offset="0.53" style="stop-color:rgb(84,82,255);stop-opacity:1"/><stop offset="1" style="stop-color:rgb(98,0,255);stop-opacity:1"/></linearGradient>
        <linearGradient id="_Linear12" x1="0" y1="0" x2="1" y2="0" gradientUnits="userSpaceOnUse" gradientTransform="matrix(54.2102,0,0,51.557,169.395,281.778)"><stop offset="0" style="stop-color:rgb(3,0,255);stop-opacity:1"/><stop offset="0.53" style="stop-color:rgb(84,82,255);stop-opacity:1"/><stop offset="1" style="stop-color:rgb(98,0,255);stop-opacity:1"/></linearGradient>
        <linearGradient id="_Linear13" x1="0" y1="0" x2="1" y2="0" gradientUnits="userSpaceOnUse" gradientTransform="matrix(54.2102,0,0,51.557,169.395,281.778)"><stop offset="0" style="stop-color:rgb(3,0,255);stop-opacity:1"/><stop offset="0.53" style="stop-color:rgb(84,82,255);stop-opacity:1"/><stop offset="1" style="stop-color:rgb(98,0,255);stop-opacity:1"/></linearGradient>
        <linearGradient id="_Linear14" x1="0" y1="0" x2="1" y2="0" gradientUnits="userSpaceOnUse" gradientTransform="matrix(54.2102,0,0,51.557,169.395,281.778)"><stop offset="0" style="stop-color:rgb(3,0,255);stop-opacity:1"/><stop offset="0.53" style="stop-color:rgb(84,82,255);stop-opacity:1"/><stop offset="1" style="stop-color:rgb(98,0,255);stop-opacity:1"/></linearGradient>
        <linearGradient id="_Linear15" x1="0" y1="0" x2="1" y2="0" gradientUnits="userSpaceOnUse" gradientTransform="matrix(54.2102,0,0,51.557,169.395,281.778)"><stop offset="0" style="stop-color:rgb(3,0,255);stop-opacity:1"/><stop offset="0.53" style="stop-color:rgb(84,82,255);stop-opacity:1"/><stop offset="1" style="stop-color:rgb(98,0,255);stop-opacity:1"/></linearGradient>
        <linearGradient id="_Linear16" x1="0" y1="0" x2="1" y2="0" gradientUnits="userSpaceOnUse" gradientTransform="matrix(54.2102,0,0,51.557,169.395,281.778)"><stop offset="0" style="stop-color:rgb(3,0,255);stop-opacity:1"/><stop offset="0.53" style="stop-color:rgb(84,82,255);stop-opacity:1"/><stop offset="1" style="stop-color:rgb(98,0,255);stop-opacity:1"/></linearGradient>
        <linearGradient id="_Linear17" x1="0" y1="0" x2="1" y2="0" gradientUnits="userSpaceOnUse" gradientTransform="matrix(54.2102,0,0,51.557,169.395,281.778)"><stop offset="0" style="stop-color:rgb(3,0,255);stop-opacity:1"/><stop offset="0.53" style="stop-color:rgb(84,82,255);stop-opacity:1"/><stop offset="1" style="stop-color:rgb(98,0,255);stop-opacity:1"/></linearGradient>
        <linearGradient id="_Linear18" x1="0" y1="0" x2="1" y2="0" gradientUnits="userSpaceOnUse" gradientTransform="matrix(54.2102,0,0,51.557,169.395,281.778)"><stop offset="0" style="stop-color:rgb(3,0,255);stop-opacity:1"/><stop offset="0.53" style="stop-color:rgb(84,82,255);stop-opacity:1"/><stop offset="1" style="stop-color:rgb(98,0,255);stop-opacity:1"/></linearGradient>
        <linearGradient id="_Linear19" x1="0" y1="0" x2="1" y2="0" gradientUnits="userSpaceOnUse" gradientTransform="matrix(54.2102,0,0,51.557,169.395,281.778)"><stop offset="0" style="stop-color:rgb(3,0,255);stop-opacity:1"/><stop offset="0.53" style="stop-color:rgb(84,82,255);stop-opacity:1"/><stop offset="1" style="stop-color:rgb(98,0,255);stop-opacity:1"/></linearGradient>
    </defs>
</svg>
